<svg width="353" height="381" viewBox="0 0 353 381" fill="none" xmlns="http://www.w3.org/2000/svg">
<path d="M20.5908 310.395L110.567 44.8262L303.154 260.53L20.5908 310.395Z" fill="black"/>
<path d="M172.882 38.4026L21.4488 190.151L225.6 330.029L317.855 192.711L172.882 38.4026Z" fill="#B56226"/>
<path d="M146.312 191.808L132.569 194.806L135.556 175.528L136.342 170.461L141.831 170.137L142.275 172.286L146.312 191.808Z" fill="#F6F4E7"/>
<path d="M142.275 172.286L135.556 175.528L136.342 170.461L141.831 170.137L142.275 172.286Z" fill="black"/>
<path d="M150.358 161.593C150.241 164.087 149.095 166.452 147.145 168.226C145.195 169.999 142.58 171.054 139.812 171.184C137.045 171.314 134.322 170.51 132.178 168.928C130.034 167.347 128.621 165.102 128.217 162.632C127.813 160.163 128.445 157.646 129.991 155.574C131.537 153.503 133.886 152.025 136.577 151.429C139.269 150.834 142.11 151.164 144.546 152.355C146.982 153.546 148.837 155.512 149.748 157.869V157.893C150.208 159.081 150.415 160.336 150.358 161.593Z" fill="#F6F4E7"/>
<path d="M200.822 93.1833L198.838 67.7189L195.848 80.3848L192.943 67.2883L191.072 80.8642L187.056 69.6437L187.413 82.2537L182.123 70.7911L184.899 85.2561L176.283 81.7091L188.845 91.6286L190.726 96.2858L200.822 93.1833Z" fill="#F6F4E7"/>
<path d="M177.497 247.599L187.69 341.541L93.1651 340.696L95.5426 199.333L168.621 187.651L191.848 159.052L182.707 95.8364L202.621 91.1304L229.393 174.929L177.497 247.599Z" fill="#FCC75F"/>
<path d="M224.049 172.462H157.377V203.883H224.049V172.462Z" fill="black"/>
<path d="M224.049 172.462H163.837V203.883H224.049V172.462Z" fill="#FD6232"/>
<path d="M206.993 200.624C214.558 200.624 220.69 195.102 220.69 188.289C220.69 181.476 214.558 175.954 206.993 175.954C199.429 175.954 193.297 181.476 193.297 188.289C193.297 195.102 199.429 200.624 206.993 200.624Z" fill="black"/>
<path d="M208.544 200.624C216.108 200.624 222.24 195.102 222.24 188.289C222.24 181.476 216.108 175.954 208.544 175.954C200.98 175.954 194.848 181.476 194.848 188.289C194.848 195.102 200.98 200.624 208.544 200.624Z" fill="#8964FE"/>
<path d="M208.544 198.064C214.538 198.064 219.398 193.688 219.398 188.289C219.398 182.89 214.538 178.514 208.544 178.514C202.55 178.514 197.69 182.89 197.69 188.289C197.69 193.688 202.55 198.064 208.544 198.064Z" fill="black"/>
<path d="M175.756 211.184L173.771 185.719L170.781 198.385L167.877 185.289L166.006 198.865L161.99 187.644L162.346 200.254L157.057 188.792L159.832 203.257L151.216 199.71L163.778 209.631L165.659 214.286L175.756 211.184Z" fill="#F6F4E7"/>
<path d="M157.377 211.33L179.084 209.468L178.518 274.171C178.358 292.586 152.86 300.895 139.655 286.837L91.4337 235.512C88.6964 232.599 86.6543 229.209 85.4348 225.553C84.2153 221.898 83.8444 218.056 84.3452 214.266C84.8461 210.475 86.2079 206.819 88.346 203.523C90.484 200.228 93.3524 197.364 96.7727 195.111L101.817 191.78L150.917 251.828L157.377 211.33Z" fill="#FCC75F"/>
<path d="M91.9971 238.794L139.546 286.739C139.546 286.739 149.565 298.225 164.455 292.481C164.455 292.481 177.826 286.816 178.454 276.887L179.007 260.628L184.901 314.552L91.9971 278.826V238.794Z" fill="black"/>
<path d="M157.377 211.331L150.917 251.828L138.662 236.402L157.377 211.331Z" fill="black"/>
<path d="M175.262 203.883L175.629 209.745L179.084 209.469L178.947 245.583L209.159 203.771L175.262 203.883Z" fill="black"/>
<path d="M185.545 176.186H169.781V181.307H185.545V176.186Z" fill="#F6F4E7"/>
<path d="M54.268 202.253L79.0762 168.273L91.2219 182.005L69.7731 211.098L63.0542 206.443L68.7394 199.228L54.268 202.253Z" stroke="white" stroke-width="4" stroke-miterlimit="10"/>
<path d="M192.134 276.149L224.954 256.599L210.999 241.936L228.313 230.997L254.413 263.581L215.392 291.51L192.134 276.149Z" stroke="white" stroke-width="4" stroke-miterlimit="10"/>
<path d="M34.7573 158.149C34.7573 158.149 20.2859 95.0754 66.8013 99.2647C113.317 103.454 159.057 111.367 187.741 50.156" stroke="#FD612E" stroke-width="4" stroke-miterlimit="10"/>
<path d="M255.01 231.917C247.849 220.603 243.965 209.341 243.464 198.462C243.049 189.765 244.858 181.098 248.751 173.13C255.395 159.457 265.807 151.976 266.254 151.665L269.448 155.323L267.851 153.494L269.451 155.321C269.352 155.393 259.489 162.513 253.395 175.183C245.273 192.066 247.327 210.381 259.502 229.612L255.01 231.917Z" fill="#FD612E"/>
<path d="M266.171 195.039C268.027 195.039 269.531 193.684 269.531 192.013C269.531 190.342 268.027 188.987 266.171 188.987C264.316 188.987 262.812 190.342 262.812 192.013C262.812 193.684 264.316 195.039 266.171 195.039Z" fill="black"/>
<path d="M282.452 147.326C285.877 147.326 288.654 144.825 288.654 141.74C288.654 138.655 285.877 136.155 282.452 136.155C279.026 136.155 276.25 138.655 276.25 141.74C276.25 144.825 279.026 147.326 282.452 147.326Z" fill="black"/>
<path d="M140.063 53.7636C143.203 53.7636 145.748 51.4712 145.748 48.6433C145.748 45.8154 143.203 43.5229 140.063 43.5229C136.923 43.5229 134.378 45.8154 134.378 48.6433C134.378 51.4712 136.923 53.7636 140.063 53.7636Z" fill="black"/>
<path d="M84.2445 92.3989C85.8144 92.3989 87.0871 91.2527 87.0871 89.8387C87.0871 88.4248 85.8144 87.2786 84.2445 87.2786C82.6746 87.2786 81.4019 88.4248 81.4019 89.8387C81.4019 91.2527 82.6746 92.3989 84.2445 92.3989Z" fill="black"/>
<path d="M67.4473 130.569C69.3027 130.569 70.8067 129.214 70.8067 127.543C70.8067 125.872 69.3027 124.517 67.4473 124.517C65.5919 124.517 64.0879 125.872 64.0879 127.543C64.0879 129.214 65.5919 130.569 67.4473 130.569Z" fill="black"/>
<path d="M37.4707 230.648C39.0407 230.648 40.3134 229.502 40.3134 228.088C40.3134 226.674 39.0407 225.528 37.4707 225.528C35.9008 225.528 34.6281 226.674 34.6281 228.088C34.6281 229.502 35.9008 230.648 37.4707 230.648Z" fill="black"/>
<path d="M44.7064 155.472C46.5618 155.472 48.0659 154.118 48.0659 152.447C48.0659 150.776 46.5618 149.421 44.7064 149.421C42.8511 149.421 41.347 150.776 41.347 152.447C41.347 154.118 42.8511 155.472 44.7064 155.472Z" fill="black"/>
<path d="M270.306 294.652C271.448 294.652 272.373 293.819 272.373 292.79C272.373 291.762 271.448 290.928 270.306 290.928C269.164 290.928 268.239 291.762 268.239 292.79C268.239 293.819 269.164 294.652 270.306 294.652Z" fill="black"/>
<path d="M308.81 242.518C310.951 242.518 312.687 240.955 312.687 239.027C312.687 237.099 310.951 235.536 308.81 235.536C306.67 235.536 304.934 237.099 304.934 239.027C304.934 240.955 306.67 242.518 308.81 242.518Z" fill="black"/>
<path d="M202.083 331.658C203.082 331.658 203.892 330.929 203.892 330.029C203.892 329.13 203.082 328.4 202.083 328.4C201.084 328.4 200.275 329.13 200.275 330.029C200.275 330.929 201.084 331.658 202.083 331.658Z" fill="black"/>
<path d="M157.635 127.776C159.776 127.776 161.512 126.213 161.512 124.285C161.512 122.357 159.776 120.793 157.635 120.793C155.495 120.793 153.759 122.357 153.759 124.285C153.759 126.213 155.495 127.776 157.635 127.776Z" fill="black"/>
<path d="M54.0095 281.153L31.7855 327.935L72.0988 327.004L54.0095 281.153Z" fill="#FCC75F"/>
<path d="M298.215 90.5371H216.296V116.372H298.215V90.5371Z" fill="black"/>
<path d="M297.182 89.606H215.263V115.44H297.182V89.606Z" fill="#FD612E"/>
<path d="M96.907 126.845L136.187 129.405L120.682 77.0378L96.907 126.845Z" stroke="white" stroke-width="4" stroke-miterlimit="10"/>
<path d="M159.703 236.467C159.703 241.48 158.298 246.412 155.618 250.806C152.939 255.201 149.071 258.915 144.374 261.605C139.677 264.295 134.302 265.874 128.747 266.196C123.192 266.517 117.637 265.571 112.596 263.445C107.555 261.318 103.191 258.081 99.9092 254.031C96.6271 249.982 94.5327 245.253 93.8199 240.28C93.1071 235.308 93.7991 230.255 95.8317 225.588C97.8643 220.92 101.172 216.791 105.448 213.581C102.62 211.865 100.281 209.573 98.6193 206.892C96.9581 204.21 96.0217 201.213 95.8861 198.144C95.7504 195.076 96.4193 192.022 97.8385 189.229C99.2578 186.437 101.387 183.985 104.055 182.072C101.746 180.128 100.127 177.612 99.4024 174.842C98.6774 172.071 98.8785 169.169 99.9805 166.501C101.082 163.833 103.036 161.518 105.595 159.847C108.154 158.177 111.205 157.226 114.363 157.113C113.568 155.204 113.49 153.112 114.142 151.16C114.794 149.207 116.14 147.501 117.973 146.305C119.806 145.108 122.025 144.486 124.288 144.534C126.551 144.583 128.734 145.3 130.501 146.574C132.31 144.791 134.869 143.244 138.381 142.168C151.971 138.012 160.904 154.844 160.904 154.844L128.569 163.851C130.287 166.315 131.138 169.189 131.01 172.097C130.883 175.004 129.782 177.809 127.853 180.143C130.483 181.415 132.794 183.162 134.641 185.275C136.487 187.388 137.83 189.821 138.585 192.423C139.34 195.025 139.491 197.739 139.029 200.395C138.566 203.052 137.5 205.594 135.897 207.862C142.766 209.671 148.798 213.436 153.09 218.593C157.382 223.75 159.702 230.022 159.703 236.467Z" fill="#FD6232"/>
</svg>
