<svg width="432" height="459" viewBox="0 0 432 459" fill="none" xmlns="http://www.w3.org/2000/svg">
<path d="M25.1989 373.94L135.311 54.0032L370.998 313.867L25.1989 373.94Z" fill="black"/>
<path d="M211.572 46.2644L26.2489 229.079L276.088 397.594L388.99 232.164L211.572 46.2644Z" fill="#B56226"/>
<path d="M179.055 231.076L162.237 234.687L165.893 211.463L166.854 205.358L173.572 204.969L174.116 207.557L179.055 231.076Z" fill="#F6F4E7"/>
<path d="M174.116 207.557L165.893 211.463L166.854 205.358L173.572 204.969L174.116 207.557Z" fill="black"/>
<path d="M184.008 194.675C183.864 197.68 182.462 200.529 180.075 202.666C177.689 204.802 174.489 206.073 171.102 206.23C167.715 206.386 164.383 205.417 161.759 203.512C159.135 201.606 157.406 198.902 156.911 195.927C156.416 192.952 157.191 189.92 159.083 187.424C160.975 184.928 163.849 183.148 167.143 182.431C170.436 181.713 173.914 182.111 176.895 183.546C179.875 184.98 182.146 187.349 183.262 190.189V190.217C183.824 191.648 184.077 193.161 184.008 194.675V194.675Z" fill="#F6F4E7"/>
<path d="M245.766 112.26L243.337 81.5827L239.678 96.8416L236.123 81.064L233.833 97.4192L228.919 83.9015L229.355 99.0931L222.882 85.2839L226.278 102.71L215.734 98.437L231.107 110.387L233.41 115.998L245.766 112.26Z" fill="#F6F4E7"/>
<path d="M217.221 298.288L229.694 411.463L114.015 410.445L116.925 240.141L206.358 226.068L234.782 191.614L223.596 115.457L247.967 109.787L280.73 210.742L217.221 298.288Z" fill="#FCC75F"/>
<path d="M274.19 207.77H192.597V245.623H274.19V207.77Z" fill="black"/>
<path d="M274.19 207.77H200.504V245.623H274.19V207.77Z" fill="#FD6232"/>
<path d="M253.318 241.697C262.575 241.697 270.079 235.044 270.079 226.836C270.079 218.629 262.575 211.976 253.318 211.976C244.061 211.976 236.556 218.629 236.556 226.836C236.556 235.044 244.061 241.697 253.318 241.697Z" fill="black"/>
<path d="M255.215 241.697C264.472 241.697 271.977 235.044 271.977 226.836C271.977 218.629 264.472 211.976 255.215 211.976C245.958 211.976 238.454 218.629 238.454 226.836C238.454 235.044 245.958 241.697 255.215 241.697Z" fill="#8964FE"/>
<path d="M255.215 238.613C262.551 238.613 268.498 233.34 268.498 226.836C268.498 220.332 262.551 215.06 255.215 215.06C247.879 215.06 241.933 220.332 241.933 226.836C241.933 233.34 247.879 238.613 255.215 238.613Z" fill="black"/>
<path d="M215.089 254.418L212.66 223.741L209.001 239L205.447 223.222L203.157 239.577L198.242 226.059L198.679 241.251L192.205 227.442L195.602 244.868L185.058 240.595L200.431 252.548L202.733 258.156L215.089 254.418Z" fill="#F6F4E7"/>
<path d="M192.597 254.595L219.163 252.352L218.47 330.301C218.274 352.485 187.069 362.495 170.909 345.56L111.896 283.728C108.546 280.217 106.047 276.133 104.555 271.73C103.062 267.326 102.608 262.697 103.221 258.131C103.834 253.565 105.501 249.16 108.117 245.19C110.734 241.22 114.244 237.77 118.43 235.055L124.603 231.042L184.691 303.383L192.597 254.595Z" fill="#FCC75F"/>
<path d="M112.586 287.681L170.776 345.441C170.776 345.441 183.037 359.279 201.259 352.359C201.259 352.359 217.622 345.534 218.391 333.573L219.068 313.984L226.281 378.948L112.586 335.908V287.681Z" fill="black"/>
<path d="M192.597 254.595L184.691 303.383L169.694 284.799L192.597 254.595Z" fill="black"/>
<path d="M214.485 245.622L214.934 252.685L219.163 252.352L218.995 295.86L255.968 245.488L214.485 245.622Z" fill="black"/>
<path d="M227.069 212.256H207.777V218.424H227.069V212.256Z" fill="#F6F4E7"/>
<path d="M66.4129 243.66L96.7731 202.723L111.637 219.266L85.388 254.315L77.1655 248.707L84.123 240.015L66.4129 243.66Z" stroke="white" stroke-width="4" stroke-miterlimit="10"/>
<path d="M235.133 332.684L275.297 309.131L258.22 291.466L279.408 278.288L311.35 317.543L263.596 351.19L235.133 332.684Z" stroke="white" stroke-width="4" stroke-miterlimit="10"/>
<path d="M42.5359 190.526C42.5359 190.526 24.8258 114.54 81.7511 119.587C138.676 124.634 194.653 134.167 229.757 60.4243" stroke="#FD612E" stroke-width="4" stroke-miterlimit="10"/>
<path d="M312.081 279.395C303.317 265.766 298.564 252.198 297.95 239.092C297.443 228.614 299.657 218.173 304.421 208.574C312.552 192.101 325.294 183.09 325.841 182.714L329.75 187.122L327.795 184.918L329.753 187.119C329.632 187.206 317.561 195.783 310.104 211.047C300.164 231.387 302.678 253.451 317.577 276.62L312.081 279.395Z" fill="#FD612E"/>
<path d="M325.739 234.968C328.01 234.968 329.851 233.336 329.851 231.323C329.851 229.309 328.01 227.677 325.739 227.677C323.469 227.677 321.628 229.309 321.628 231.323C321.628 233.336 323.469 234.968 325.739 234.968Z" fill="black"/>
<path d="M345.663 177.487C349.855 177.487 353.253 174.474 353.253 170.758C353.253 167.041 349.855 164.029 345.663 164.029C341.471 164.029 338.073 167.041 338.073 170.758C338.073 174.474 341.471 177.487 345.663 177.487Z" fill="black"/>
<path d="M171.408 64.7703C175.251 64.7703 178.366 62.0085 178.366 58.6017C178.366 55.1949 175.251 52.4331 171.408 52.4331C167.566 52.4331 164.451 55.1949 164.451 58.6017C164.451 62.0085 167.566 64.7703 171.408 64.7703Z" fill="black"/>
<path d="M103.098 111.315C105.019 111.315 106.577 109.934 106.577 108.231C106.577 106.527 105.019 105.146 103.098 105.146C101.177 105.146 99.6193 106.527 99.6193 108.231C99.6193 109.934 101.177 111.315 103.098 111.315Z" fill="black"/>
<path d="M82.5417 157.299C84.8123 157.299 86.653 155.667 86.653 153.654C86.653 151.641 84.8123 150.009 82.5417 150.009C80.2711 150.009 78.4305 151.641 78.4305 153.654C78.4305 155.667 80.2711 157.299 82.5417 157.299Z" fill="black"/>
<path d="M45.8566 277.867C47.7778 277.867 49.3353 276.486 49.3353 274.783C49.3353 273.08 47.7778 271.699 45.8566 271.699C43.9353 271.699 42.3778 273.08 42.3778 274.783C42.3778 276.486 43.9353 277.867 45.8566 277.867Z" fill="black"/>
<path d="M54.7116 187.301C56.9821 187.301 58.8228 185.669 58.8228 183.656C58.8228 181.643 56.9821 180.011 54.7116 180.011C52.441 180.011 50.6003 181.643 50.6003 183.656C50.6003 185.669 52.441 187.301 54.7116 187.301Z" fill="black"/>
<path d="M330.799 354.975C332.197 354.975 333.329 353.971 333.329 352.732C333.329 351.493 332.197 350.489 330.799 350.489C329.402 350.489 328.269 351.493 328.269 352.732C328.269 353.971 329.402 354.975 330.799 354.975Z" fill="black"/>
<path d="M377.921 292.167C380.541 292.167 382.665 290.284 382.665 287.961C382.665 285.639 380.541 283.756 377.921 283.756C375.301 283.756 373.177 285.639 373.177 287.961C373.177 290.284 375.301 292.167 377.921 292.167Z" fill="black"/>
<path d="M247.309 399.557C248.532 399.557 249.523 398.678 249.523 397.594C249.523 396.51 248.532 395.632 247.309 395.632C246.086 395.632 245.095 396.51 245.095 397.594C245.095 398.678 246.086 399.557 247.309 399.557Z" fill="black"/>
<path d="M192.914 153.935C195.534 153.935 197.657 152.052 197.657 149.729C197.657 147.406 195.534 145.523 192.914 145.523C190.294 145.523 188.17 147.406 188.17 149.729C188.17 152.052 190.294 153.935 192.914 153.935Z" fill="black"/>
<path d="M66.0966 338.712L38.899 395.071L88.2343 393.949L66.0966 338.712Z" fill="#FCC75F"/>
<path d="M364.955 109.072H264.703V140.195H364.955V109.072Z" fill="black"/>
<path d="M363.69 107.951H263.438V139.074H363.69V107.951Z" fill="#FD612E"/>
<path d="M118.594 152.813L166.665 155.897L147.69 92.8093L118.594 152.813Z" stroke="white" stroke-width="4" stroke-miterlimit="10"/>
<path d="M195.444 284.877C195.443 290.917 193.724 296.859 190.445 302.153C187.166 307.447 182.433 311.921 176.684 315.162C170.936 318.403 164.358 320.305 157.56 320.692C150.762 321.08 143.963 319.94 137.794 317.378C131.625 314.817 126.285 310.916 122.268 306.038C118.252 301.16 115.689 295.462 114.816 289.472C113.944 283.482 114.791 277.393 117.278 271.771C119.766 266.148 123.814 261.173 129.047 257.306C125.586 255.239 122.723 252.478 120.69 249.247C118.657 246.016 117.511 242.406 117.345 238.71C117.179 235.013 117.998 231.333 119.734 227.969C121.471 224.605 124.078 221.651 127.342 219.347C124.517 217.005 122.536 213.974 121.648 210.636C120.761 207.298 121.007 203.802 122.356 200.588C123.704 197.373 126.095 194.585 129.227 192.572C132.359 190.56 136.092 189.413 139.957 189.278C138.984 186.978 138.889 184.458 139.687 182.106C140.485 179.754 142.132 177.699 144.375 176.257C146.618 174.815 149.333 174.066 152.103 174.124C154.873 174.183 157.544 175.046 159.707 176.582C161.921 174.434 165.052 172.569 169.35 171.274C185.981 166.266 196.914 186.544 196.914 186.544L157.342 197.395C159.445 200.364 160.486 203.826 160.33 207.329C160.174 210.832 158.827 214.211 156.466 217.022C159.685 218.555 162.513 220.66 164.773 223.205C167.032 225.751 168.676 228.683 169.6 231.817C170.524 234.951 170.708 238.221 170.143 241.421C169.577 244.621 168.272 247.684 166.311 250.417C174.716 252.596 182.099 257.132 187.351 263.344C192.604 269.557 195.443 277.113 195.444 284.877V284.877Z" fill="#FD6232"/>
</svg>
